<mxfile host="app.diagrams.net" modified="2024-01-07T12:24:02.857Z" agent="Mozilla/5.0 (Windows NT 10.0; Win64; x64) AppleWebKit/537.36 (KHTML, like Gecko) Chrome/118.0.0.0 YaBrowser/23.11.0.0 Safari/537.36" etag="Tc17XvQ4PJmKbL4nTjLW" version="22.1.17" type="device">
  <diagram id="C5RBs43oDa-KdzZeNtuy" name="Page-1">
    <mxGraphModel dx="1113" dy="1799" grid="1" gridSize="10" guides="1" tooltips="1" connect="1" arrows="1" fold="1" page="1" pageScale="1" pageWidth="827" pageHeight="1169" math="0" shadow="0">
      <root>
        <mxCell id="WIyWlLk6GJQsqaUBKTNV-0" />
        <mxCell id="WIyWlLk6GJQsqaUBKTNV-1" parent="WIyWlLk6GJQsqaUBKTNV-0" />
        <mxCell id="zkfFHV4jXpPFQw0GAbJ--0" value="Акт о переоценке техники&#xa;&lt;&lt;business entity&gt;&gt;" style="swimlane;fontStyle=0;align=center;verticalAlign=top;childLayout=stackLayout;horizontal=1;startSize=40;horizontalStack=0;resizeParent=1;resizeLast=0;collapsible=1;marginBottom=0;rounded=0;shadow=0;strokeWidth=1;" parent="WIyWlLk6GJQsqaUBKTNV-1" vertex="1">
          <mxGeometry x="370" y="40" width="160" height="150" as="geometry">
            <mxRectangle x="230" y="140" width="160" height="26" as="alternateBounds" />
          </mxGeometry>
        </mxCell>
        <mxCell id="zkfFHV4jXpPFQw0GAbJ--1" value="-№: int" style="text;align=left;verticalAlign=top;spacingLeft=4;spacingRight=4;overflow=hidden;rotatable=0;points=[[0,0.5],[1,0.5]];portConstraint=eastwest;" parent="zkfFHV4jXpPFQw0GAbJ--0" vertex="1">
          <mxGeometry y="40" width="160" height="26" as="geometry" />
        </mxCell>
        <mxCell id="zkfFHV4jXpPFQw0GAbJ--2" value="-Дата: date" style="text;align=left;verticalAlign=top;spacingLeft=4;spacingRight=4;overflow=hidden;rotatable=0;points=[[0,0.5],[1,0.5]];portConstraint=eastwest;rounded=0;shadow=0;html=0;" parent="zkfFHV4jXpPFQw0GAbJ--0" vertex="1">
          <mxGeometry y="66" width="160" height="26" as="geometry" />
        </mxCell>
        <mxCell id="rVS61_PG7z8FyUwIQTjq-11" value="-Сумма переоценки: int" style="text;align=left;verticalAlign=top;spacingLeft=4;spacingRight=4;overflow=hidden;rotatable=0;points=[[0,0.5],[1,0.5]];portConstraint=eastwest;rounded=0;shadow=0;html=0;" parent="zkfFHV4jXpPFQw0GAbJ--0" vertex="1">
          <mxGeometry y="92" width="160" height="26" as="geometry" />
        </mxCell>
        <mxCell id="rVS61_PG7z8FyUwIQTjq-12" value="Организация&lt;br&gt;&amp;lt;&amp;lt;entity&amp;gt;&amp;gt;" style="swimlane;fontStyle=0;childLayout=stackLayout;horizontal=1;startSize=30;horizontalStack=0;resizeParent=1;resizeParentMax=0;resizeLast=0;collapsible=1;marginBottom=0;whiteSpace=wrap;html=1;" parent="WIyWlLk6GJQsqaUBKTNV-1" vertex="1">
          <mxGeometry x="40" y="43" width="210" height="180" as="geometry" />
        </mxCell>
        <mxCell id="rVS61_PG7z8FyUwIQTjq-13" value="-Название: string" style="text;strokeColor=none;fillColor=none;align=left;verticalAlign=middle;spacingLeft=4;spacingRight=4;overflow=hidden;points=[[0,0.5],[1,0.5]];portConstraint=eastwest;rotatable=0;whiteSpace=wrap;html=1;" parent="rVS61_PG7z8FyUwIQTjq-12" vertex="1">
          <mxGeometry y="30" width="210" height="30" as="geometry" />
        </mxCell>
        <mxCell id="rVS61_PG7z8FyUwIQTjq-14" value="-ИНН/КПП: int" style="text;strokeColor=none;fillColor=none;align=left;verticalAlign=middle;spacingLeft=4;spacingRight=4;overflow=hidden;points=[[0,0.5],[1,0.5]];portConstraint=eastwest;rotatable=0;whiteSpace=wrap;html=1;" parent="rVS61_PG7z8FyUwIQTjq-12" vertex="1">
          <mxGeometry y="60" width="210" height="30" as="geometry" />
        </mxCell>
        <mxCell id="rVS61_PG7z8FyUwIQTjq-16" value="-Cклад:int" style="text;strokeColor=none;fillColor=none;align=left;verticalAlign=middle;spacingLeft=4;spacingRight=4;overflow=hidden;points=[[0,0.5],[1,0.5]];portConstraint=eastwest;rotatable=0;whiteSpace=wrap;html=1;" parent="rVS61_PG7z8FyUwIQTjq-12" vertex="1">
          <mxGeometry y="90" width="210" height="30" as="geometry" />
        </mxCell>
        <mxCell id="rVS61_PG7z8FyUwIQTjq-17" value="-Главный бухгалтер: string" style="text;strokeColor=none;fillColor=none;align=left;verticalAlign=middle;spacingLeft=4;spacingRight=4;overflow=hidden;points=[[0,0.5],[1,0.5]];portConstraint=eastwest;rotatable=0;whiteSpace=wrap;html=1;" parent="rVS61_PG7z8FyUwIQTjq-12" vertex="1">
          <mxGeometry y="120" width="210" height="30" as="geometry" />
        </mxCell>
        <mxCell id="rVS61_PG7z8FyUwIQTjq-18" value="-Руководитель организации: string" style="text;strokeColor=none;fillColor=none;align=left;verticalAlign=middle;spacingLeft=4;spacingRight=4;overflow=hidden;points=[[0,0.5],[1,0.5]];portConstraint=eastwest;rotatable=0;whiteSpace=wrap;html=1;" parent="rVS61_PG7z8FyUwIQTjq-12" vertex="1">
          <mxGeometry y="150" width="210" height="30" as="geometry" />
        </mxCell>
        <mxCell id="rVS61_PG7z8FyUwIQTjq-20" value="Cклад" style="swimlane;fontStyle=0;align=center;verticalAlign=top;childLayout=stackLayout;horizontal=1;startSize=26;horizontalStack=0;resizeParent=1;resizeLast=0;collapsible=1;marginBottom=0;rounded=0;shadow=0;strokeWidth=1;" parent="WIyWlLk6GJQsqaUBKTNV-1" vertex="1">
          <mxGeometry x="370" y="250" width="160" height="80" as="geometry">
            <mxRectangle x="230" y="140" width="160" height="26" as="alternateBounds" />
          </mxGeometry>
        </mxCell>
        <mxCell id="rVS61_PG7z8FyUwIQTjq-21" value="-№: int" style="text;align=left;verticalAlign=top;spacingLeft=4;spacingRight=4;overflow=hidden;rotatable=0;points=[[0,0.5],[1,0.5]];portConstraint=eastwest;" parent="rVS61_PG7z8FyUwIQTjq-20" vertex="1">
          <mxGeometry y="26" width="160" height="26" as="geometry" />
        </mxCell>
        <mxCell id="rVS61_PG7z8FyUwIQTjq-25" value="-Кладовщик: string" style="text;align=left;verticalAlign=top;spacingLeft=4;spacingRight=4;overflow=hidden;rotatable=0;points=[[0,0.5],[1,0.5]];portConstraint=eastwest;rounded=0;shadow=0;html=0;" parent="rVS61_PG7z8FyUwIQTjq-20" vertex="1">
          <mxGeometry y="52" width="160" height="26" as="geometry" />
        </mxCell>
        <mxCell id="rVS61_PG7z8FyUwIQTjq-33" value="Техника" style="swimlane;fontStyle=0;childLayout=stackLayout;horizontal=1;startSize=30;horizontalStack=0;resizeParent=1;resizeParentMax=0;resizeLast=0;collapsible=1;marginBottom=0;whiteSpace=wrap;html=1;" parent="WIyWlLk6GJQsqaUBKTNV-1" vertex="1">
          <mxGeometry x="620" y="43" width="140" height="120" as="geometry" />
        </mxCell>
        <mxCell id="rVS61_PG7z8FyUwIQTjq-34" value="-Название: string" style="text;strokeColor=none;fillColor=none;align=left;verticalAlign=middle;spacingLeft=4;spacingRight=4;overflow=hidden;points=[[0,0.5],[1,0.5]];portConstraint=eastwest;rotatable=0;whiteSpace=wrap;html=1;" parent="rVS61_PG7z8FyUwIQTjq-33" vertex="1">
          <mxGeometry y="30" width="140" height="30" as="geometry" />
        </mxCell>
        <mxCell id="rVS61_PG7z8FyUwIQTjq-35" value="-Изготовитель: string" style="text;strokeColor=none;fillColor=none;align=left;verticalAlign=middle;spacingLeft=4;spacingRight=4;overflow=hidden;points=[[0,0.5],[1,0.5]];portConstraint=eastwest;rotatable=0;whiteSpace=wrap;html=1;" parent="rVS61_PG7z8FyUwIQTjq-33" vertex="1">
          <mxGeometry y="60" width="140" height="30" as="geometry" />
        </mxCell>
        <mxCell id="rVS61_PG7z8FyUwIQTjq-36" value="-Поставщик: string" style="text;strokeColor=none;fillColor=none;align=left;verticalAlign=middle;spacingLeft=4;spacingRight=4;overflow=hidden;points=[[0,0.5],[1,0.5]];portConstraint=eastwest;rotatable=0;whiteSpace=wrap;html=1;" parent="rVS61_PG7z8FyUwIQTjq-33" vertex="1">
          <mxGeometry y="90" width="140" height="30" as="geometry" />
        </mxCell>
        <mxCell id="rVS61_PG7z8FyUwIQTjq-38" value="Переоценка" style="swimlane;fontStyle=0;childLayout=stackLayout;horizontal=1;startSize=30;horizontalStack=0;resizeParent=1;resizeParentMax=0;resizeLast=0;collapsible=1;marginBottom=0;whiteSpace=wrap;html=1;" parent="WIyWlLk6GJQsqaUBKTNV-1" vertex="1">
          <mxGeometry x="380" y="-130" width="140" height="90" as="geometry" />
        </mxCell>
        <mxCell id="rVS61_PG7z8FyUwIQTjq-39" value="-Причина: string" style="text;strokeColor=none;fillColor=none;align=left;verticalAlign=middle;spacingLeft=4;spacingRight=4;overflow=hidden;points=[[0,0.5],[1,0.5]];portConstraint=eastwest;rotatable=0;whiteSpace=wrap;html=1;" parent="rVS61_PG7z8FyUwIQTjq-38" vertex="1">
          <mxGeometry y="30" width="140" height="30" as="geometry" />
        </mxCell>
        <mxCell id="rVS61_PG7z8FyUwIQTjq-40" value="-%: int" style="text;strokeColor=none;fillColor=none;align=left;verticalAlign=middle;spacingLeft=4;spacingRight=4;overflow=hidden;points=[[0,0.5],[1,0.5]];portConstraint=eastwest;rotatable=0;whiteSpace=wrap;html=1;" parent="rVS61_PG7z8FyUwIQTjq-38" vertex="1">
          <mxGeometry y="60" width="140" height="30" as="geometry" />
        </mxCell>
        <mxCell id="rVS61_PG7z8FyUwIQTjq-42" value="Опись по поставщику&lt;br&gt;&amp;lt;&amp;lt;business entity&amp;gt;&amp;gt;" style="swimlane;fontStyle=0;childLayout=stackLayout;horizontal=1;startSize=40;horizontalStack=0;resizeParent=1;resizeParentMax=0;resizeLast=0;collapsible=1;marginBottom=0;whiteSpace=wrap;html=1;" parent="WIyWlLk6GJQsqaUBKTNV-1" vertex="1">
          <mxGeometry x="345" y="350" width="185" height="190" as="geometry" />
        </mxCell>
        <mxCell id="rVS61_PG7z8FyUwIQTjq-43" value="-№ документа: int" style="text;strokeColor=none;fillColor=none;align=left;verticalAlign=middle;spacingLeft=4;spacingRight=4;overflow=hidden;points=[[0,0.5],[1,0.5]];portConstraint=eastwest;rotatable=0;whiteSpace=wrap;html=1;" parent="rVS61_PG7z8FyUwIQTjq-42" vertex="1">
          <mxGeometry y="40" width="185" height="30" as="geometry" />
        </mxCell>
        <mxCell id="rVS61_PG7z8FyUwIQTjq-44" value="-Дата составления: date" style="text;strokeColor=none;fillColor=none;align=left;verticalAlign=middle;spacingLeft=4;spacingRight=4;overflow=hidden;points=[[0,0.5],[1,0.5]];portConstraint=eastwest;rotatable=0;whiteSpace=wrap;html=1;" parent="rVS61_PG7z8FyUwIQTjq-42" vertex="1">
          <mxGeometry y="70" width="185" height="30" as="geometry" />
        </mxCell>
        <mxCell id="rVS61_PG7z8FyUwIQTjq-45" value="-№: int" style="text;strokeColor=none;fillColor=none;align=left;verticalAlign=middle;spacingLeft=4;spacingRight=4;overflow=hidden;points=[[0,0.5],[1,0.5]];portConstraint=eastwest;rotatable=0;whiteSpace=wrap;html=1;" parent="rVS61_PG7z8FyUwIQTjq-42" vertex="1">
          <mxGeometry y="100" width="185" height="30" as="geometry" />
        </mxCell>
        <mxCell id="rVS61_PG7z8FyUwIQTjq-47" value="-Дата постановки на учет: date" style="text;strokeColor=none;fillColor=none;align=left;verticalAlign=middle;spacingLeft=4;spacingRight=4;overflow=hidden;points=[[0,0.5],[1,0.5]];portConstraint=eastwest;rotatable=0;whiteSpace=wrap;html=1;" parent="rVS61_PG7z8FyUwIQTjq-42" vertex="1">
          <mxGeometry y="130" width="185" height="30" as="geometry" />
        </mxCell>
        <mxCell id="rVS61_PG7z8FyUwIQTjq-48" value="-Стоимость, руб: int" style="text;strokeColor=none;fillColor=none;align=left;verticalAlign=middle;spacingLeft=4;spacingRight=4;overflow=hidden;points=[[0,0.5],[1,0.5]];portConstraint=eastwest;rotatable=0;whiteSpace=wrap;html=1;" parent="rVS61_PG7z8FyUwIQTjq-42" vertex="1">
          <mxGeometry y="160" width="185" height="30" as="geometry" />
        </mxCell>
        <mxCell id="rVS61_PG7z8FyUwIQTjq-49" value="Актив" style="swimlane;fontStyle=0;childLayout=stackLayout;horizontal=1;startSize=30;horizontalStack=0;resizeParent=1;resizeParentMax=0;resizeLast=0;collapsible=1;marginBottom=0;whiteSpace=wrap;html=1;" parent="WIyWlLk6GJQsqaUBKTNV-1" vertex="1">
          <mxGeometry x="339" y="599" width="197" height="150" as="geometry" />
        </mxCell>
        <mxCell id="rVS61_PG7z8FyUwIQTjq-50" value="-Наименование: string" style="text;strokeColor=none;fillColor=none;align=left;verticalAlign=middle;spacingLeft=4;spacingRight=4;overflow=hidden;points=[[0,0.5],[1,0.5]];portConstraint=eastwest;rotatable=0;whiteSpace=wrap;html=1;" parent="rVS61_PG7z8FyUwIQTjq-49" vertex="1">
          <mxGeometry y="30" width="197" height="30" as="geometry" />
        </mxCell>
        <mxCell id="rVS61_PG7z8FyUwIQTjq-51" value="-Назначение: string" style="text;strokeColor=none;fillColor=none;align=left;verticalAlign=middle;spacingLeft=4;spacingRight=4;overflow=hidden;points=[[0,0.5],[1,0.5]];portConstraint=eastwest;rotatable=0;whiteSpace=wrap;html=1;" parent="rVS61_PG7z8FyUwIQTjq-49" vertex="1">
          <mxGeometry y="60" width="197" height="30" as="geometry" />
        </mxCell>
        <mxCell id="rVS61_PG7z8FyUwIQTjq-52" value="-Краткая характеристика: string" style="text;strokeColor=none;fillColor=none;align=left;verticalAlign=middle;spacingLeft=4;spacingRight=4;overflow=hidden;points=[[0,0.5],[1,0.5]];portConstraint=eastwest;rotatable=0;whiteSpace=wrap;html=1;" parent="rVS61_PG7z8FyUwIQTjq-49" vertex="1">
          <mxGeometry y="90" width="197" height="30" as="geometry" />
        </mxCell>
        <mxCell id="rVS61_PG7z8FyUwIQTjq-53" value="-Изготовитель: string" style="text;strokeColor=none;fillColor=none;align=left;verticalAlign=middle;spacingLeft=4;spacingRight=4;overflow=hidden;points=[[0,0.5],[1,0.5]];portConstraint=eastwest;rotatable=0;whiteSpace=wrap;html=1;" parent="rVS61_PG7z8FyUwIQTjq-49" vertex="1">
          <mxGeometry y="120" width="197" height="30" as="geometry" />
        </mxCell>
        <mxCell id="rVS61_PG7z8FyUwIQTjq-54" value="Документ о регистрации" style="swimlane;fontStyle=0;childLayout=stackLayout;horizontal=1;startSize=30;horizontalStack=0;resizeParent=1;resizeParentMax=0;resizeLast=0;collapsible=1;marginBottom=0;whiteSpace=wrap;html=1;" parent="WIyWlLk6GJQsqaUBKTNV-1" vertex="1">
          <mxGeometry x="650" y="390" width="165" height="120" as="geometry" />
        </mxCell>
        <mxCell id="rVS61_PG7z8FyUwIQTjq-55" value="-Наименование: string" style="text;strokeColor=none;fillColor=none;align=left;verticalAlign=middle;spacingLeft=4;spacingRight=4;overflow=hidden;points=[[0,0.5],[1,0.5]];portConstraint=eastwest;rotatable=0;whiteSpace=wrap;html=1;" parent="rVS61_PG7z8FyUwIQTjq-54" vertex="1">
          <mxGeometry y="30" width="165" height="30" as="geometry" />
        </mxCell>
        <mxCell id="rVS61_PG7z8FyUwIQTjq-56" value="-Дата: date" style="text;strokeColor=none;fillColor=none;align=left;verticalAlign=middle;spacingLeft=4;spacingRight=4;overflow=hidden;points=[[0,0.5],[1,0.5]];portConstraint=eastwest;rotatable=0;whiteSpace=wrap;html=1;" parent="rVS61_PG7z8FyUwIQTjq-54" vertex="1">
          <mxGeometry y="60" width="165" height="30" as="geometry" />
        </mxCell>
        <mxCell id="rVS61_PG7z8FyUwIQTjq-57" value="-№: int" style="text;strokeColor=none;fillColor=none;align=left;verticalAlign=middle;spacingLeft=4;spacingRight=4;overflow=hidden;points=[[0,0.5],[1,0.5]];portConstraint=eastwest;rotatable=0;whiteSpace=wrap;html=1;" parent="rVS61_PG7z8FyUwIQTjq-54" vertex="1">
          <mxGeometry y="90" width="165" height="30" as="geometry" />
        </mxCell>
        <mxCell id="rVS61_PG7z8FyUwIQTjq-58" value="Комиссия по инвентаризации" style="swimlane;fontStyle=0;childLayout=stackLayout;horizontal=1;startSize=30;horizontalStack=0;resizeParent=1;resizeParentMax=0;resizeLast=0;collapsible=1;marginBottom=0;whiteSpace=wrap;html=1;" parent="WIyWlLk6GJQsqaUBKTNV-1" vertex="1">
          <mxGeometry x="40" y="390" width="210" height="120" as="geometry" />
        </mxCell>
        <mxCell id="rVS61_PG7z8FyUwIQTjq-59" value="-Председатель комиссии 1: string" style="text;strokeColor=none;fillColor=none;align=left;verticalAlign=middle;spacingLeft=4;spacingRight=4;overflow=hidden;points=[[0,0.5],[1,0.5]];portConstraint=eastwest;rotatable=0;whiteSpace=wrap;html=1;" parent="rVS61_PG7z8FyUwIQTjq-58" vertex="1">
          <mxGeometry y="30" width="210" height="30" as="geometry" />
        </mxCell>
        <mxCell id="rVS61_PG7z8FyUwIQTjq-62" value="-Председатель комиссии 2: string" style="text;strokeColor=none;fillColor=none;align=left;verticalAlign=middle;spacingLeft=4;spacingRight=4;overflow=hidden;points=[[0,0.5],[1,0.5]];portConstraint=eastwest;rotatable=0;whiteSpace=wrap;html=1;" parent="rVS61_PG7z8FyUwIQTjq-58" vertex="1">
          <mxGeometry y="60" width="210" height="30" as="geometry" />
        </mxCell>
        <mxCell id="rVS61_PG7z8FyUwIQTjq-63" value="-Председатель комиссии 3: string" style="text;strokeColor=none;fillColor=none;align=left;verticalAlign=middle;spacingLeft=4;spacingRight=4;overflow=hidden;points=[[0,0.5],[1,0.5]];portConstraint=eastwest;rotatable=0;whiteSpace=wrap;html=1;" parent="rVS61_PG7z8FyUwIQTjq-58" vertex="1">
          <mxGeometry y="90" width="210" height="30" as="geometry" />
        </mxCell>
        <mxCell id="rVS61_PG7z8FyUwIQTjq-65" value="Опись по изготовителю&lt;br&gt;&amp;lt;&amp;lt;business entity&amp;gt;&amp;gt;" style="swimlane;fontStyle=0;childLayout=stackLayout;horizontal=1;startSize=40;horizontalStack=0;resizeParent=1;resizeParentMax=0;resizeLast=0;collapsible=1;marginBottom=0;whiteSpace=wrap;html=1;" parent="WIyWlLk6GJQsqaUBKTNV-1" vertex="1">
          <mxGeometry x="20" y="570" width="280" height="430" as="geometry" />
        </mxCell>
        <mxCell id="rVS61_PG7z8FyUwIQTjq-66" value="-№ документа: int" style="text;strokeColor=none;fillColor=none;align=left;verticalAlign=middle;spacingLeft=4;spacingRight=4;overflow=hidden;points=[[0,0.5],[1,0.5]];portConstraint=eastwest;rotatable=0;whiteSpace=wrap;html=1;" parent="rVS61_PG7z8FyUwIQTjq-65" vertex="1">
          <mxGeometry y="40" width="280" height="30" as="geometry" />
        </mxCell>
        <mxCell id="rVS61_PG7z8FyUwIQTjq-67" value="-Дата составления: date" style="text;strokeColor=none;fillColor=none;align=left;verticalAlign=middle;spacingLeft=4;spacingRight=4;overflow=hidden;points=[[0,0.5],[1,0.5]];portConstraint=eastwest;rotatable=0;whiteSpace=wrap;html=1;" parent="rVS61_PG7z8FyUwIQTjq-65" vertex="1">
          <mxGeometry y="70" width="280" height="30" as="geometry" />
        </mxCell>
        <mxCell id="rVS61_PG7z8FyUwIQTjq-68" value="-№: int" style="text;strokeColor=none;fillColor=none;align=left;verticalAlign=middle;spacingLeft=4;spacingRight=4;overflow=hidden;points=[[0,0.5],[1,0.5]];portConstraint=eastwest;rotatable=0;whiteSpace=wrap;html=1;" parent="rVS61_PG7z8FyUwIQTjq-65" vertex="1">
          <mxGeometry y="100" width="280" height="30" as="geometry" />
        </mxCell>
        <mxCell id="rVS61_PG7z8FyUwIQTjq-69" value="-Наименование: string" style="text;strokeColor=none;fillColor=none;align=left;verticalAlign=middle;spacingLeft=4;spacingRight=4;overflow=hidden;points=[[0,0.5],[1,0.5]];portConstraint=eastwest;rotatable=0;whiteSpace=wrap;html=1;" parent="rVS61_PG7z8FyUwIQTjq-65" vertex="1">
          <mxGeometry y="130" width="280" height="30" as="geometry" />
        </mxCell>
        <mxCell id="rVS61_PG7z8FyUwIQTjq-75" value="-Год выпуска: int" style="text;strokeColor=none;fillColor=none;align=left;verticalAlign=middle;spacingLeft=4;spacingRight=4;overflow=hidden;points=[[0,0.5],[1,0.5]];portConstraint=eastwest;rotatable=0;whiteSpace=wrap;html=1;" parent="rVS61_PG7z8FyUwIQTjq-65" vertex="1">
          <mxGeometry y="160" width="280" height="30" as="geometry" />
        </mxCell>
        <mxCell id="rVS61_PG7z8FyUwIQTjq-76" value="-Изготовитель: string" style="text;strokeColor=none;fillColor=none;align=left;verticalAlign=middle;spacingLeft=4;spacingRight=4;overflow=hidden;points=[[0,0.5],[1,0.5]];portConstraint=eastwest;rotatable=0;whiteSpace=wrap;html=1;" parent="rVS61_PG7z8FyUwIQTjq-65" vertex="1">
          <mxGeometry y="190" width="280" height="30" as="geometry" />
        </mxCell>
        <mxCell id="rVS61_PG7z8FyUwIQTjq-70" value="-Цена за единицу, руб: int" style="text;strokeColor=none;fillColor=none;align=left;verticalAlign=middle;spacingLeft=4;spacingRight=4;overflow=hidden;points=[[0,0.5],[1,0.5]];portConstraint=eastwest;rotatable=0;whiteSpace=wrap;html=1;" parent="rVS61_PG7z8FyUwIQTjq-65" vertex="1">
          <mxGeometry y="220" width="280" height="30" as="geometry" />
        </mxCell>
        <mxCell id="rVS61_PG7z8FyUwIQTjq-77" value="-Фактическое наличие (кол-во): int" style="text;strokeColor=none;fillColor=none;align=left;verticalAlign=middle;spacingLeft=4;spacingRight=4;overflow=hidden;points=[[0,0.5],[1,0.5]];portConstraint=eastwest;rotatable=0;whiteSpace=wrap;html=1;" parent="rVS61_PG7z8FyUwIQTjq-65" vertex="1">
          <mxGeometry y="250" width="280" height="30" as="geometry" />
        </mxCell>
        <mxCell id="rVS61_PG7z8FyUwIQTjq-78" value="-Фактическое наличие (стоимость, руб): int" style="text;strokeColor=none;fillColor=none;align=left;verticalAlign=middle;spacingLeft=4;spacingRight=4;overflow=hidden;points=[[0,0.5],[1,0.5]];portConstraint=eastwest;rotatable=0;whiteSpace=wrap;html=1;" parent="rVS61_PG7z8FyUwIQTjq-65" vertex="1">
          <mxGeometry y="280" width="280" height="30" as="geometry" />
        </mxCell>
        <mxCell id="rVS61_PG7z8FyUwIQTjq-79" value="-По данным о принятии (кол-во): int" style="text;strokeColor=none;fillColor=none;align=left;verticalAlign=middle;spacingLeft=4;spacingRight=4;overflow=hidden;points=[[0,0.5],[1,0.5]];portConstraint=eastwest;rotatable=0;whiteSpace=wrap;html=1;" parent="rVS61_PG7z8FyUwIQTjq-65" vertex="1">
          <mxGeometry y="310" width="280" height="30" as="geometry" />
        </mxCell>
        <mxCell id="rVS61_PG7z8FyUwIQTjq-80" value="-По данным о принятии (стоимость, руб): int" style="text;strokeColor=none;fillColor=none;align=left;verticalAlign=middle;spacingLeft=4;spacingRight=4;overflow=hidden;points=[[0,0.5],[1,0.5]];portConstraint=eastwest;rotatable=0;whiteSpace=wrap;html=1;" parent="rVS61_PG7z8FyUwIQTjq-65" vertex="1">
          <mxGeometry y="340" width="280" height="30" as="geometry" />
        </mxCell>
        <mxCell id="rVS61_PG7z8FyUwIQTjq-81" value="-Разница в количестве: int" style="text;strokeColor=none;fillColor=none;align=left;verticalAlign=middle;spacingLeft=4;spacingRight=4;overflow=hidden;points=[[0,0.5],[1,0.5]];portConstraint=eastwest;rotatable=0;whiteSpace=wrap;html=1;" parent="rVS61_PG7z8FyUwIQTjq-65" vertex="1">
          <mxGeometry y="370" width="280" height="30" as="geometry" />
        </mxCell>
        <mxCell id="rVS61_PG7z8FyUwIQTjq-82" value="-Разница в стоимости: int" style="text;strokeColor=none;fillColor=none;align=left;verticalAlign=middle;spacingLeft=4;spacingRight=4;overflow=hidden;points=[[0,0.5],[1,0.5]];portConstraint=eastwest;rotatable=0;whiteSpace=wrap;html=1;" parent="rVS61_PG7z8FyUwIQTjq-65" vertex="1">
          <mxGeometry y="400" width="280" height="30" as="geometry" />
        </mxCell>
        <mxCell id="rVS61_PG7z8FyUwIQTjq-71" value="Документ о принятии" style="swimlane;fontStyle=0;childLayout=stackLayout;horizontal=1;startSize=30;horizontalStack=0;resizeParent=1;resizeParentMax=0;resizeLast=0;collapsible=1;marginBottom=0;whiteSpace=wrap;html=1;" parent="WIyWlLk6GJQsqaUBKTNV-1" vertex="1">
          <mxGeometry x="360" y="820" width="165" height="120" as="geometry" />
        </mxCell>
        <mxCell id="rVS61_PG7z8FyUwIQTjq-72" value="-Наименование: string" style="text;strokeColor=none;fillColor=none;align=left;verticalAlign=middle;spacingLeft=4;spacingRight=4;overflow=hidden;points=[[0,0.5],[1,0.5]];portConstraint=eastwest;rotatable=0;whiteSpace=wrap;html=1;" parent="rVS61_PG7z8FyUwIQTjq-71" vertex="1">
          <mxGeometry y="30" width="165" height="30" as="geometry" />
        </mxCell>
        <mxCell id="rVS61_PG7z8FyUwIQTjq-73" value="-Дата: date" style="text;strokeColor=none;fillColor=none;align=left;verticalAlign=middle;spacingLeft=4;spacingRight=4;overflow=hidden;points=[[0,0.5],[1,0.5]];portConstraint=eastwest;rotatable=0;whiteSpace=wrap;html=1;" parent="rVS61_PG7z8FyUwIQTjq-71" vertex="1">
          <mxGeometry y="60" width="165" height="30" as="geometry" />
        </mxCell>
        <mxCell id="rVS61_PG7z8FyUwIQTjq-74" value="-№: int" style="text;strokeColor=none;fillColor=none;align=left;verticalAlign=middle;spacingLeft=4;spacingRight=4;overflow=hidden;points=[[0,0.5],[1,0.5]];portConstraint=eastwest;rotatable=0;whiteSpace=wrap;html=1;" parent="rVS61_PG7z8FyUwIQTjq-71" vertex="1">
          <mxGeometry y="90" width="165" height="30" as="geometry" />
        </mxCell>
        <mxCell id="rVS61_PG7z8FyUwIQTjq-84" value="" style="endArrow=diamondThin;endFill=1;endSize=24;html=1;rounded=0;exitX=0.5;exitY=0;exitDx=0;exitDy=0;" parent="WIyWlLk6GJQsqaUBKTNV-1" source="rVS61_PG7z8FyUwIQTjq-58" target="rVS61_PG7z8FyUwIQTjq-18" edge="1">
          <mxGeometry width="160" relative="1" as="geometry">
            <mxPoint x="140" y="240" as="sourcePoint" />
            <mxPoint x="145" y="250" as="targetPoint" />
          </mxGeometry>
        </mxCell>
        <mxCell id="rVS61_PG7z8FyUwIQTjq-85" value="1" style="text;html=1;align=center;verticalAlign=middle;resizable=0;points=[];autosize=1;strokeColor=none;fillColor=none;" parent="WIyWlLk6GJQsqaUBKTNV-1" vertex="1">
          <mxGeometry x="155" y="220" width="30" height="30" as="geometry" />
        </mxCell>
        <mxCell id="rVS61_PG7z8FyUwIQTjq-86" value="1" style="text;html=1;align=center;verticalAlign=middle;resizable=0;points=[];autosize=1;strokeColor=none;fillColor=none;" parent="WIyWlLk6GJQsqaUBKTNV-1" vertex="1">
          <mxGeometry x="155" y="350" width="30" height="30" as="geometry" />
        </mxCell>
        <mxCell id="rVS61_PG7z8FyUwIQTjq-89" value="" style="endArrow=diamondThin;endFill=0;endSize=24;html=1;rounded=0;exitX=1;exitY=0.5;exitDx=0;exitDy=0;entryX=0;entryY=0.5;entryDx=0;entryDy=0;" parent="WIyWlLk6GJQsqaUBKTNV-1" source="rVS61_PG7z8FyUwIQTjq-14" target="zkfFHV4jXpPFQw0GAbJ--2" edge="1">
          <mxGeometry width="160" relative="1" as="geometry">
            <mxPoint x="240" y="300" as="sourcePoint" />
            <mxPoint x="400" y="300" as="targetPoint" />
          </mxGeometry>
        </mxCell>
        <mxCell id="rVS61_PG7z8FyUwIQTjq-90" value="1" style="text;html=1;align=center;verticalAlign=middle;resizable=0;points=[];autosize=1;strokeColor=none;fillColor=none;" parent="WIyWlLk6GJQsqaUBKTNV-1" vertex="1">
          <mxGeometry x="245" y="88" width="30" height="30" as="geometry" />
        </mxCell>
        <mxCell id="rVS61_PG7z8FyUwIQTjq-91" value="0..*" style="text;html=1;align=center;verticalAlign=middle;resizable=0;points=[];autosize=1;strokeColor=none;fillColor=none;" parent="WIyWlLk6GJQsqaUBKTNV-1" vertex="1">
          <mxGeometry x="320" y="88" width="40" height="30" as="geometry" />
        </mxCell>
        <mxCell id="rVS61_PG7z8FyUwIQTjq-100" value="1..*" style="text;html=1;align=center;verticalAlign=middle;resizable=0;points=[];autosize=1;strokeColor=none;fillColor=none;" parent="WIyWlLk6GJQsqaUBKTNV-1" vertex="1">
          <mxGeometry x="580" y="80" width="40" height="30" as="geometry" />
        </mxCell>
        <mxCell id="rVS61_PG7z8FyUwIQTjq-101" value="1" style="text;html=1;align=center;verticalAlign=middle;resizable=0;points=[];autosize=1;strokeColor=none;fillColor=none;" parent="WIyWlLk6GJQsqaUBKTNV-1" vertex="1">
          <mxGeometry x="450" y="160" width="30" height="30" as="geometry" />
        </mxCell>
        <mxCell id="rVS61_PG7z8FyUwIQTjq-102" value="1..*" style="text;html=1;align=center;verticalAlign=middle;resizable=0;points=[];autosize=1;strokeColor=none;fillColor=none;" parent="WIyWlLk6GJQsqaUBKTNV-1" vertex="1">
          <mxGeometry x="460" y="220" width="40" height="30" as="geometry" />
        </mxCell>
        <mxCell id="rVS61_PG7z8FyUwIQTjq-103" style="edgeStyle=orthogonalEdgeStyle;rounded=0;orthogonalLoop=1;jettySize=auto;html=1;entryX=0.498;entryY=1.033;entryDx=0;entryDy=0;entryPerimeter=0;" parent="WIyWlLk6GJQsqaUBKTNV-1" source="zkfFHV4jXpPFQw0GAbJ--0" target="rVS61_PG7z8FyUwIQTjq-40" edge="1">
          <mxGeometry relative="1" as="geometry" />
        </mxCell>
        <mxCell id="rVS61_PG7z8FyUwIQTjq-104" value="1" style="text;html=1;align=center;verticalAlign=middle;resizable=0;points=[];autosize=1;strokeColor=none;fillColor=none;" parent="WIyWlLk6GJQsqaUBKTNV-1" vertex="1">
          <mxGeometry x="445" y="18" width="30" height="30" as="geometry" />
        </mxCell>
        <mxCell id="rVS61_PG7z8FyUwIQTjq-105" value="1" style="text;html=1;align=center;verticalAlign=middle;resizable=0;points=[];autosize=1;strokeColor=none;fillColor=none;" parent="WIyWlLk6GJQsqaUBKTNV-1" vertex="1">
          <mxGeometry x="445" y="-42" width="30" height="30" as="geometry" />
        </mxCell>
        <mxCell id="rVS61_PG7z8FyUwIQTjq-106" value="" style="endArrow=diamondThin;endFill=0;endSize=24;html=1;rounded=0;exitX=1;exitY=0.5;exitDx=0;exitDy=0;entryX=0;entryY=0.5;entryDx=0;entryDy=0;" parent="WIyWlLk6GJQsqaUBKTNV-1" source="rVS61_PG7z8FyUwIQTjq-62" target="rVS61_PG7z8FyUwIQTjq-45" edge="1">
          <mxGeometry width="160" relative="1" as="geometry">
            <mxPoint x="210" y="500" as="sourcePoint" />
            <mxPoint x="370" y="500" as="targetPoint" />
          </mxGeometry>
        </mxCell>
        <mxCell id="rVS61_PG7z8FyUwIQTjq-107" value="1" style="text;html=1;align=center;verticalAlign=middle;resizable=0;points=[];autosize=1;strokeColor=none;fillColor=none;" parent="WIyWlLk6GJQsqaUBKTNV-1" vertex="1">
          <mxGeometry x="245" y="428" width="30" height="30" as="geometry" />
        </mxCell>
        <mxCell id="rVS61_PG7z8FyUwIQTjq-108" value="0..*" style="text;html=1;align=center;verticalAlign=middle;resizable=0;points=[];autosize=1;strokeColor=none;fillColor=none;" parent="WIyWlLk6GJQsqaUBKTNV-1" vertex="1">
          <mxGeometry x="305" y="425" width="40" height="30" as="geometry" />
        </mxCell>
        <mxCell id="rVS61_PG7z8FyUwIQTjq-110" value="1" style="text;html=1;align=center;verticalAlign=middle;resizable=0;points=[];autosize=1;strokeColor=none;fillColor=none;" parent="WIyWlLk6GJQsqaUBKTNV-1" vertex="1">
          <mxGeometry x="530" y="430" width="30" height="30" as="geometry" />
        </mxCell>
        <mxCell id="rVS61_PG7z8FyUwIQTjq-111" value="1..*" style="text;html=1;align=center;verticalAlign=middle;resizable=0;points=[];autosize=1;strokeColor=none;fillColor=none;" parent="WIyWlLk6GJQsqaUBKTNV-1" vertex="1">
          <mxGeometry x="600" y="430" width="40" height="30" as="geometry" />
        </mxCell>
        <mxCell id="rVS61_PG7z8FyUwIQTjq-112" value="" style="endArrow=diamondThin;endFill=1;endSize=24;html=1;rounded=0;entryX=0.5;entryY=0;entryDx=0;entryDy=0;exitX=0.5;exitY=1;exitDx=0;exitDy=0;" parent="WIyWlLk6GJQsqaUBKTNV-1" source="zkfFHV4jXpPFQw0GAbJ--0" target="rVS61_PG7z8FyUwIQTjq-20" edge="1">
          <mxGeometry width="160" relative="1" as="geometry">
            <mxPoint x="450" y="170" as="sourcePoint" />
            <mxPoint x="420" y="210" as="targetPoint" />
          </mxGeometry>
        </mxCell>
        <mxCell id="rVS61_PG7z8FyUwIQTjq-115" value="1" style="text;html=1;align=center;verticalAlign=middle;resizable=0;points=[];autosize=1;strokeColor=none;fillColor=none;" parent="WIyWlLk6GJQsqaUBKTNV-1" vertex="1">
          <mxGeometry x="435" y="530" width="30" height="30" as="geometry" />
        </mxCell>
        <mxCell id="rVS61_PG7z8FyUwIQTjq-116" value="1..*" style="text;html=1;align=center;verticalAlign=middle;resizable=0;points=[];autosize=1;strokeColor=none;fillColor=none;" parent="WIyWlLk6GJQsqaUBKTNV-1" vertex="1">
          <mxGeometry x="440" y="569" width="40" height="30" as="geometry" />
        </mxCell>
        <mxCell id="rVS61_PG7z8FyUwIQTjq-118" value="" style="endArrow=diamondThin;endFill=0;endSize=24;html=1;rounded=0;exitX=0.571;exitY=1;exitDx=0;exitDy=0;exitPerimeter=0;entryX=0.5;entryY=0;entryDx=0;entryDy=0;" parent="WIyWlLk6GJQsqaUBKTNV-1" source="rVS61_PG7z8FyUwIQTjq-63" target="rVS61_PG7z8FyUwIQTjq-65" edge="1">
          <mxGeometry width="160" relative="1" as="geometry">
            <mxPoint x="270" y="560" as="sourcePoint" />
            <mxPoint x="430" y="560" as="targetPoint" />
          </mxGeometry>
        </mxCell>
        <mxCell id="rVS61_PG7z8FyUwIQTjq-119" value="" style="endArrow=block;endSize=16;endFill=0;html=1;rounded=0;exitX=1;exitY=0.5;exitDx=0;exitDy=0;entryX=0;entryY=0.5;entryDx=0;entryDy=0;" parent="WIyWlLk6GJQsqaUBKTNV-1" source="rVS61_PG7z8FyUwIQTjq-79" target="rVS61_PG7z8FyUwIQTjq-73" edge="1">
          <mxGeometry width="160" relative="1" as="geometry">
            <mxPoint x="210" y="690" as="sourcePoint" />
            <mxPoint x="370" y="690" as="targetPoint" />
          </mxGeometry>
        </mxCell>
        <mxCell id="rVS61_PG7z8FyUwIQTjq-120" value="" style="endArrow=block;endSize=16;endFill=0;html=1;rounded=0;exitX=0.495;exitY=1.004;exitDx=0;exitDy=0;exitPerimeter=0;" parent="WIyWlLk6GJQsqaUBKTNV-1" source="rVS61_PG7z8FyUwIQTjq-48" target="rVS61_PG7z8FyUwIQTjq-49" edge="1">
          <mxGeometry width="160" relative="1" as="geometry">
            <mxPoint x="210" y="690" as="sourcePoint" />
            <mxPoint x="370" y="690" as="targetPoint" />
          </mxGeometry>
        </mxCell>
        <mxCell id="rVS61_PG7z8FyUwIQTjq-121" value="" style="endArrow=block;endSize=16;endFill=0;html=1;rounded=0;exitX=1;exitY=0.5;exitDx=0;exitDy=0;entryX=0;entryY=0.5;entryDx=0;entryDy=0;" parent="WIyWlLk6GJQsqaUBKTNV-1" source="rVS61_PG7z8FyUwIQTjq-44" target="rVS61_PG7z8FyUwIQTjq-55" edge="1">
          <mxGeometry width="160" relative="1" as="geometry">
            <mxPoint x="580" y="530" as="sourcePoint" />
            <mxPoint x="740" y="530" as="targetPoint" />
          </mxGeometry>
        </mxCell>
        <mxCell id="rVS61_PG7z8FyUwIQTjq-122" value="" style="endArrow=block;endSize=16;endFill=0;html=1;rounded=0;entryX=0;entryY=0.5;entryDx=0;entryDy=0;exitX=1;exitY=0.5;exitDx=0;exitDy=0;" parent="WIyWlLk6GJQsqaUBKTNV-1" source="zkfFHV4jXpPFQw0GAbJ--2" target="rVS61_PG7z8FyUwIQTjq-35" edge="1">
          <mxGeometry width="160" relative="1" as="geometry">
            <mxPoint x="533.6" y="89.38000000000011" as="sourcePoint" />
            <mxPoint x="670" y="360" as="targetPoint" />
          </mxGeometry>
        </mxCell>
        <mxCell id="rVS61_PG7z8FyUwIQTjq-123" value="1" style="text;html=1;align=center;verticalAlign=middle;resizable=0;points=[];autosize=1;strokeColor=none;fillColor=none;" parent="WIyWlLk6GJQsqaUBKTNV-1" vertex="1">
          <mxGeometry x="525" y="88" width="30" height="30" as="geometry" />
        </mxCell>
        <mxCell id="rVS61_PG7z8FyUwIQTjq-124" value="1" style="text;html=1;align=center;verticalAlign=middle;resizable=0;points=[];autosize=1;strokeColor=none;fillColor=none;" parent="WIyWlLk6GJQsqaUBKTNV-1" vertex="1">
          <mxGeometry x="125" y="500" width="30" height="30" as="geometry" />
        </mxCell>
        <mxCell id="rVS61_PG7z8FyUwIQTjq-125" value="0..*" style="text;html=1;align=center;verticalAlign=middle;resizable=0;points=[];autosize=1;strokeColor=none;fillColor=none;" parent="WIyWlLk6GJQsqaUBKTNV-1" vertex="1">
          <mxGeometry x="170" y="540" width="40" height="30" as="geometry" />
        </mxCell>
        <mxCell id="O8I9ixpDPt84G7X_TN2l-3" style="edgeStyle=orthogonalEdgeStyle;rounded=0;orthogonalLoop=1;jettySize=auto;html=1;entryX=0;entryY=0.5;entryDx=0;entryDy=0;" parent="WIyWlLk6GJQsqaUBKTNV-1" source="O8I9ixpDPt84G7X_TN2l-1" target="O8I9ixpDPt84G7X_TN2l-2" edge="1">
          <mxGeometry relative="1" as="geometry" />
        </mxCell>
        <mxCell id="O8I9ixpDPt84G7X_TN2l-1" value="Главный бухгалтер" style="shape=umlActor;verticalLabelPosition=bottom;verticalAlign=top;html=1;outlineConnect=0;" parent="WIyWlLk6GJQsqaUBKTNV-1" vertex="1">
          <mxGeometry x="1010" y="820" width="30" height="60" as="geometry" />
        </mxCell>
        <mxCell id="O8I9ixpDPt84G7X_TN2l-2" value="Регистрация распоряжения&lt;br&gt;о переоценке" style="ellipse;whiteSpace=wrap;html=1;" parent="WIyWlLk6GJQsqaUBKTNV-1" vertex="1">
          <mxGeometry x="1140" y="810" width="120" height="80" as="geometry" />
        </mxCell>
        <mxCell id="O8I9ixpDPt84G7X_TN2l-4" value="Указание&amp;nbsp;&lt;br&gt;название&amp;nbsp;&lt;br&gt;техники" style="ellipse;whiteSpace=wrap;html=1;" parent="WIyWlLk6GJQsqaUBKTNV-1" vertex="1">
          <mxGeometry x="1330" y="690" width="120" height="80" as="geometry" />
        </mxCell>
        <mxCell id="O8I9ixpDPt84G7X_TN2l-5" value="Указание&lt;br&gt;причины" style="ellipse;whiteSpace=wrap;html=1;" parent="WIyWlLk6GJQsqaUBKTNV-1" vertex="1">
          <mxGeometry x="1390" y="810" width="120" height="80" as="geometry" />
        </mxCell>
        <mxCell id="O8I9ixpDPt84G7X_TN2l-6" value="Указание&lt;br&gt;процента&lt;br&gt;переоценки" style="ellipse;whiteSpace=wrap;html=1;" parent="WIyWlLk6GJQsqaUBKTNV-1" vertex="1">
          <mxGeometry x="1330" y="930" width="120" height="80" as="geometry" />
        </mxCell>
        <mxCell id="O8I9ixpDPt84G7X_TN2l-12" value="&amp;lt;&amp;lt;include&amp;gt;&amp;gt;" style="endArrow=open;endSize=12;dashed=1;html=1;rounded=0;edgeStyle=orthogonalEdgeStyle;exitX=1;exitY=0;exitDx=0;exitDy=0;entryX=0;entryY=0.5;entryDx=0;entryDy=0;" parent="WIyWlLk6GJQsqaUBKTNV-1" source="O8I9ixpDPt84G7X_TN2l-2" target="O8I9ixpDPt84G7X_TN2l-4" edge="1">
          <mxGeometry width="160" relative="1" as="geometry">
            <mxPoint x="1040" y="960" as="sourcePoint" />
            <mxPoint x="1200" y="960" as="targetPoint" />
            <Array as="points">
              <mxPoint x="1240" y="822" />
              <mxPoint x="1240" y="730" />
            </Array>
          </mxGeometry>
        </mxCell>
        <mxCell id="O8I9ixpDPt84G7X_TN2l-14" value="&amp;lt;&amp;lt;include&amp;gt;&amp;gt;" style="endArrow=open;endSize=12;dashed=1;html=1;rounded=0;edgeStyle=orthogonalEdgeStyle;exitX=1;exitY=0.5;exitDx=0;exitDy=0;entryX=0;entryY=0.5;entryDx=0;entryDy=0;" parent="WIyWlLk6GJQsqaUBKTNV-1" source="O8I9ixpDPt84G7X_TN2l-2" target="O8I9ixpDPt84G7X_TN2l-5" edge="1">
          <mxGeometry width="160" relative="1" as="geometry">
            <mxPoint x="1300" y="830" as="sourcePoint" />
            <mxPoint x="1388" y="738" as="targetPoint" />
            <Array as="points">
              <mxPoint x="1270" y="850" />
              <mxPoint x="1270" y="850" />
            </Array>
          </mxGeometry>
        </mxCell>
        <mxCell id="O8I9ixpDPt84G7X_TN2l-15" value="&amp;lt;&amp;lt;include&amp;gt;&amp;gt;" style="endArrow=open;endSize=12;dashed=1;html=1;rounded=0;edgeStyle=orthogonalEdgeStyle;exitX=0.807;exitY=0.902;exitDx=0;exitDy=0;entryX=0;entryY=0.5;entryDx=0;entryDy=0;exitPerimeter=0;" parent="WIyWlLk6GJQsqaUBKTNV-1" source="O8I9ixpDPt84G7X_TN2l-2" target="O8I9ixpDPt84G7X_TN2l-6" edge="1">
          <mxGeometry width="160" relative="1" as="geometry">
            <mxPoint x="1200" y="990" as="sourcePoint" />
            <mxPoint x="1330" y="990" as="targetPoint" />
            <Array as="points">
              <mxPoint x="1238" y="882" />
              <mxPoint x="1238" y="970" />
            </Array>
          </mxGeometry>
        </mxCell>
        <mxCell id="O8I9ixpDPt84G7X_TN2l-25" style="edgeStyle=orthogonalEdgeStyle;rounded=0;orthogonalLoop=1;jettySize=auto;html=1;exitX=0.5;exitY=0.5;exitDx=0;exitDy=0;exitPerimeter=0;entryX=0;entryY=0.5;entryDx=0;entryDy=0;" parent="WIyWlLk6GJQsqaUBKTNV-1" source="O8I9ixpDPt84G7X_TN2l-16" target="O8I9ixpDPt84G7X_TN2l-19" edge="1">
          <mxGeometry relative="1" as="geometry">
            <Array as="points">
              <mxPoint x="1090" y="1220" />
              <mxPoint x="1090" y="1145" />
            </Array>
          </mxGeometry>
        </mxCell>
        <mxCell id="O8I9ixpDPt84G7X_TN2l-26" style="edgeStyle=orthogonalEdgeStyle;rounded=0;orthogonalLoop=1;jettySize=auto;html=1;exitX=0.5;exitY=0.5;exitDx=0;exitDy=0;exitPerimeter=0;entryX=0;entryY=0.5;entryDx=0;entryDy=0;" parent="WIyWlLk6GJQsqaUBKTNV-1" source="O8I9ixpDPt84G7X_TN2l-16" target="O8I9ixpDPt84G7X_TN2l-20" edge="1">
          <mxGeometry relative="1" as="geometry">
            <Array as="points">
              <mxPoint x="1090" y="1220" />
              <mxPoint x="1090" y="1315" />
            </Array>
          </mxGeometry>
        </mxCell>
        <mxCell id="O8I9ixpDPt84G7X_TN2l-16" value="Кладовщик" style="shape=umlActor;verticalLabelPosition=bottom;verticalAlign=top;html=1;" parent="WIyWlLk6GJQsqaUBKTNV-1" vertex="1">
          <mxGeometry x="1010" y="1190" width="30" height="60" as="geometry" />
        </mxCell>
        <mxCell id="O8I9ixpDPt84G7X_TN2l-19" value="Переоценка&lt;br&gt;техники" style="ellipse;whiteSpace=wrap;html=1;" parent="WIyWlLk6GJQsqaUBKTNV-1" vertex="1">
          <mxGeometry x="1150" y="1110" width="140" height="70" as="geometry" />
        </mxCell>
        <mxCell id="O8I9ixpDPt84G7X_TN2l-20" value="Регистрация акта&lt;br&gt;о переоценке" style="ellipse;whiteSpace=wrap;html=1;" parent="WIyWlLk6GJQsqaUBKTNV-1" vertex="1">
          <mxGeometry x="1150" y="1280" width="140" height="70" as="geometry" />
        </mxCell>
        <mxCell id="O8I9ixpDPt84G7X_TN2l-29" style="edgeStyle=orthogonalEdgeStyle;rounded=0;orthogonalLoop=1;jettySize=auto;html=1;exitX=0.5;exitY=0.5;exitDx=0;exitDy=0;exitPerimeter=0;entryX=0;entryY=0.5;entryDx=0;entryDy=0;" parent="WIyWlLk6GJQsqaUBKTNV-1" source="O8I9ixpDPt84G7X_TN2l-27" target="O8I9ixpDPt84G7X_TN2l-28" edge="1">
          <mxGeometry relative="1" as="geometry" />
        </mxCell>
        <mxCell id="O8I9ixpDPt84G7X_TN2l-27" value="&lt;i&gt;Председатель&lt;br/&gt;инвентаризационной комиссии&lt;/i&gt;&lt;span style=&quot;font-size:14.0pt;line-height:&lt;br/&gt;107%;font-family:&amp;quot;Times New Roman&amp;quot;,&amp;quot;serif&amp;quot;;mso-fareast-font-family:Calibri;&lt;br/&gt;mso-fareast-theme-font:minor-latin;mso-ansi-language:RU;mso-fareast-language:&lt;br/&gt;EN-US;mso-bidi-language:AR-SA&quot;&gt;&lt;/span&gt;" style="shape=umlActor;verticalLabelPosition=bottom;verticalAlign=top;html=1;" parent="WIyWlLk6GJQsqaUBKTNV-1" vertex="1">
          <mxGeometry x="1010" y="1610" width="30" height="60" as="geometry" />
        </mxCell>
        <mxCell id="O8I9ixpDPt84G7X_TN2l-28" value="Регистрация описи" style="ellipse;whiteSpace=wrap;html=1;" parent="WIyWlLk6GJQsqaUBKTNV-1" vertex="1">
          <mxGeometry x="1150" y="1605" width="140" height="70" as="geometry" />
        </mxCell>
      </root>
    </mxGraphModel>
  </diagram>
</mxfile>
